{"title":"Brooklyn Nine Nine S03E19 HDTV x264-KILLERS [TvMovize].mp4","uid":13879344,"size":181619137,"categoryP":"video","categoryS":"tv_shows","magnet":"?xt=urn:btih:9965c00f6ebca3f6894a76500ab897e9a718b6f5&amp;dn=Brooklyn+Nine+Nine+S03E19+HDTV+x264-KILLERS+%5BTvMovize%5D.mp4&amp;tr=udp%3A%2F%2Ftracker.leechers-paradise.org%3A6969&amp;tr=udp%3A%2F%2Fzer0day.ch%3A1337&amp;tr=udp%3A%2F%2Fopen.demonii.com%3A1337&amp;tr=udp%3A%2F%2Ftracker.coppersurfer.tk%3A6969&amp;tr=udp%3A%2F%2Fexodus.desync.com%3A6969","seeders":1,"leechers":0,"uploader":"TvMovize","files":1,"time":1458143491,"description":"Brooklyn Nine Nine S03E19 HDTV x264-KILLERS [TvMovize].mp4\r\n\r\n+ SCREENSHOTS +\r\n \nhttp://www.image2be.com/tv/brooklynninenines03e19/1.html  \nhttp://www.image2be.com/tv/brooklynninenines03e19/2.html  \nhttp://www.image2be.com/tv/brooklynninenines03e19/3.html  \nhttp://www.image2be.com/tv/brooklynninenines03e19/4.html  \nhttp://www.image2be.com/tv/brooklynninenines03e19/5.html \r\n\r\n+ INFO +\r\n\r\nFormat : MPEG-4 \r\nFormat profile : Base Media \r\nCodec ID : isom (isom/iso2/avc1/mp41) \r\nFile size : 173 MiB \r\nDuration : 21mn 31s \r\nOverall bit rate : 1 125 Kbps \r\nWriting application : Lavf57.20.100 \r\n\r\nVideo \r\nID : 1 \r\nFormat : AVC \r\nFormat/Info : Advanced Video Codec \r\nFormat profile :    \r\nFormat settings, CABAC : Yes \r\nFormat settings, ReFrames : 5 frames \r\nCodec ID : avc1 \r\nCodec ID/Info : Advanced Video Coding \r\nDuration : 21mn 31s \r\nBit rate : 992 Kbps \r\nWidth : 720 pixels \r\nHeight : 404 pixels \r\nDisplay aspect ratio : 16:9 \r\nFrame rate mode : Constant \r\nFrame rate : 23.976 (24000/1001) fps \r\nColor space : YUV \r\nChroma subsampling : 4:2:0 \r\nBit depth : 8 bits \r\nScan type : Progressive \r\nBits/(Pixel*Frame) : 0.142 \r\nStream size : 153 MiB (88%) \r\nWriting library : x264 core 148 r2665 a01e339 \r\nEncoding settings : cabac=1 / ref=5 / deblock=1:0:0 / analyse=0x3:0x113 / me=umh / subme=8 / psy=1 / psy_rd=1.00:0.00 / mixed_ref=1 / me_range=16 / chroma_me=1 / trellis=1 / 8x8dct=1 / cqm=0 / deadzone=21,11 / fast_pskip=1 / chroma_qp_offset=-2 / threads=13 / lookahead_threads=2 / sliced_threads=0 / nr=0 / decimate=1 / interlaced=0 / bluray_compat=0 / constrained_intra=0 / bframes=3 / b_pyramid=2 / b_adapt=2 / b_bias=0 / direct=3 / weightb=1 / open_gop=0 / weightp=2 / keyint=250 / keyint_min=23 / scenecut=40 / intra_refresh=0 / rc_lookahead=50 / rc=crf / mbtree=1 / crf=19.0 / qcomp=0.60 / qpmin=0 / qpmax=69 / qpstep=4 / ip_ratio=1.40 / aq=1:1.00 \r\nColor range : Limited \r\nMatrix coefficients : BT.709 \r\n\r\nAudio \r\nID : 2 \r\nFormat : AAC \r\nFormat/Info : Advanced Audio Codec \r\nFormat profile : LC \r\nCodec ID : 40 \r\nDuration : 21mn 31s \r\nBit rate mode : Constant \r\nBit rate : 127 Kbps \r\nChannel(s) : 2 channels \r\nChannel positions : Front: L R \r\nSampling rate : 48.0 KHz \r\nFrame rate : 46.875 fps (1024 spf) \r\nCompression mode : Lossy \r\nStream size : 19.6 MiB (11%) \r\nDefault : Yes \r\nAlternate group : 1","torrent":{"xt":"urn:btih:9965c00f6ebca3f6894a76500ab897e9a718b6f5","amp;dn":"Brooklyn+Nine+Nine+S03E19+HDTV+x264-KILLERS+%5BTvMovize%5D.mp4","amp;tr":["udp%3A%2F%2Ftracker.leechers-paradise.org%3A6969","udp%3A%2F%2Fzer0day.ch%3A1337","udp%3A%2F%2Fopen.demonii.com%3A1337","udp%3A%2F%2Ftracker.coppersurfer.tk%3A6969","udp%3A%2F%2Fexodus.desync.com%3A6969"],"infoHash":"9965c00f6ebca3f6894a76500ab897e9a718b6f5","infoHashBuffer":{"type":"Buffer","data":[153,101,192,15,110,188,163,246,137,74,118,80,10,184,151,233,167,24,182,245]},"announce":[],"urlList":[]}}